<?xml version="1.0" encoding="utf-8"?>
<!-- Generator: Adobe Illustrator 21.0.2, SVG Export Plug-In . SVG Version: 6.00 Build 0)  -->
<svg version="1.1" id="Layer_1" xmlns="http://www.w3.org/2000/svg" xmlns:xlink="http://www.w3.org/1999/xlink" x="0px" y="0px"
	 viewBox="0 0 197.3 209.8" style="enable-background:new 0 0 197.3 209.8;" xml:space="preserve">
<style type="text/css">
	.st0{fill:#FFFFFF;}
</style>
<title>Asset 2</title>
<g id="Layer_2">
	<g id="Layer_1-2">
		<path class="st0" d="M152.7,44.6c-13.6-6.6-28.4-10.3-43.5-10.8H38.8l19.6-19.6L44.1,0L0,44.1l43.5,43.5l14.3-14.3L38.3,54h70.9
			c12.2,0.5,24.1,3.6,35.1,9c21.8,11.1,32.8,30.9,32.8,58.9s-11,47.8-32.8,58.9c-10.9,5.4-22.8,8.5-35,9H14.2v20.1h95.1
			c15.1-0.5,29.9-4.3,43.5-10.9c20.3-10.2,44.5-31.8,44.5-77.2S173,54.8,152.7,44.6z"/>
	</g>
</g>
</svg>
