<svg xmlns="http://www.w3.org/2000/svg" viewBox="0 0 141 141"><defs><style>.cls-1{fill:#fb7660;}</style></defs><title>Asset 7</title><g id="Layer_2" data-name="Layer 2"><g id="Layer_1-2" data-name="Layer 1"><path class="cls-1" d="M99.38,0H41.63A41.63,41.63,0,0,0,0,41.63V99.38A41.63,41.63,0,0,0,41.63,141H99.38A41.63,41.63,0,0,0,141,99.38V41.63A41.63,41.63,0,0,0,99.38,0ZM41.63,135A35.67,35.67,0,0,1,6,99.38V41.63A35.67,35.67,0,0,1,41.63,6H99.38A35.67,35.67,0,0,1,135,41.63V99.38A35.67,35.67,0,0,1,99.38,135h-1.5V89.22h18l3.53-27.35H97.87V51.25c0-5.21,1.05-7.39,7.58-7.39h14.3V19.13l-2.61-.35a155.14,155.14,0,0,0-16.87-.87c-18.79,0-30.46,12-30.46,31.22V61.88H51.39V89.22H69.83V135ZM57.39,83.22V67.88H75.83V49.13c0-15.79,9.14-25.22,24.46-25.22,5.45,0,10.4.29,13.47.55V37.85h-8.3c-12.17,0-13.58,7.64-13.58,13.39V67.88H112.6l-2,15.35H91.87V135h-16V83.22Z"/></g></g></svg>