<svg xmlns="http://www.w3.org/2000/svg" viewBox="0 0 141 141"><defs><style>.cls-1{fill:#fb7660;}</style></defs><title>Asset 6</title><g id="Layer_2" data-name="Layer 2"><g id="Layer_1-2" data-name="Layer 1"><path class="cls-1" d="M70,40A30,30,0,1,1,40,70,30,30,0,0,1,70,40m0-6a36,36,0,1,0,36,36A36,36,0,0,0,70,34Z"/><path class="cls-1" d="M108,27a5,5,0,1,1-5,5,5,5,0,0,1,5-5m0-4a9,9,0,1,0,9,9,9,9,0,0,0-9-9Z"/><path class="cls-1" d="M99.38,6A35.67,35.67,0,0,1,135,41.63V99.38A35.67,35.67,0,0,1,99.38,135H41.63A35.67,35.67,0,0,1,6,99.38V41.63A35.67,35.67,0,0,1,41.63,6H99.38m0-6H41.63A41.62,41.62,0,0,0,0,41.63V99.38A41.62,41.62,0,0,0,41.63,141H99.38A41.62,41.62,0,0,0,141,99.38V41.63A41.62,41.62,0,0,0,99.38,0Z"/></g></g></svg>